<?xml version="1.0" encoding="UTF-8" standalone="no"?>
<svg
   xmlns:dc="http://purl.org/dc/elements/1.1/"
   xmlns:cc="http://creativecommons.org/ns#"
   xmlns:rdf="http://www.w3.org/1999/02/22-rdf-syntax-ns#"
   xmlns:svg="http://www.w3.org/2000/svg"
   xmlns="http://www.w3.org/2000/svg"
   viewBox="0 0 283.79843 283.47794"
   height="283.47794"
   width="283.79843"
   id="svg2035"
   version="1.1">
  <metadata
     id="metadata2041">
    <rdf:RDF>
      <cc:Work
         rdf:about="">
        <dc:format>image/svg+xml</dc:format>
        <dc:type
           rdf:resource="http://purl.org/dc/dcmitype/StillImage" />
        <dc:title></dc:title>
      </cc:Work>
    </rdf:RDF>
  </metadata>
  <defs
     id="defs2039" />
  <path
     d="M 17.318359,0 12.527344,2.8164062 C 7.0775639,6.0198159 2.2881313,12.044789 0.80078125,17.568359 0.13634125,20.035889 -0.12151562,63.39182 0.05273437,143.66406 L 0.31835938,266 3.0917969,270.71484 c 3.13123,5.32673 7.9433591,9.38352 13.4746091,11.35743 3.05337,1.08964 26.296835,1.34711 124.824214,1.38281 136.10232,0.0493 126.97332,0.55206 134.95508,-7.42969 7.98175,-7.98176 7.47899,1.1492 7.42969,-134.95312 C 283.73969,42.544867 283.4822,19.301417 282.39258,16.248047 280.41866,10.716797 276.36189,5.9027141 271.03516,2.7714844 L 266.31836,0 h -124.5 z m 60.697266,49.472656 c 6.24589,0.0411 12.437477,2.546937 16.523437,7.503906 9.006518,10.92647 5.814058,27.243536 -6.599609,33.728516 -7.09817,3.7081 -12.934937,3.721632 -20.185547,0.04492 -7.39347,-3.74914 -11.162232,-9.255802 -11.732422,-17.138672 -0.51881,-7.17244 0.991972,-12.125959 5.144532,-16.855469 4.30375,-4.9017 10.603719,-7.324353 16.849609,-7.283203 z M 186.90039,102.60938 c 8.40328,-0.0947 13.45918,1.11274 20.66406,4.64062 9.84594,4.82109 15.68604,13.71708 18.68555,28.45703 2.03086,9.97988 2.3479,82.61304 0.36914,84.5918 -1.47028,1.47028 -33.50884,1.66956 -35.80078,0.22265 -1.27202,-0.80302 -1.57599,-6.386 -2,-36.73437 -0.5345,-38.25694 -0.62298,-38.92183 -5.82422,-43.62891 -5.33273,-4.82605 -17.62548,-3.95091 -22.88086,1.62891 -5.40584,5.73958 -5.63372,7.37997 -6.06445,43.71094 -0.25018,21.10182 -0.78128,33.96164 -1.43555,34.75 -0.75619,0.91114 -5.61007,1.25195 -17.8457,1.25195 -13.94497,0 -17.07304,-0.26837 -18.37696,-1.57227 -1.39096,-1.39098 -1.57024,-7.90764 -1.55664,-56.75 0.009,-33.02679 0.3973,-55.77991 0.96485,-56.67773 0.78243,-1.23774 3.93167,-1.5 18.01953,-1.5 19.0222,0 18.95893,-0.0243 18.98633,6.83398 l 0.0137,3.83594 4.60352,-4.05273 c 6.61382,-5.82172 13.87018,-8.33522 25.65624,-8.89063 1.35314,-0.0638 2.6218,-0.10366 3.82227,-0.11718 z M 77.384766,104.5 c 8.81752,0 16.4043,0.44876 17.5,1.03516 1.87716,1.00463 1.933593,2.6949 1.933593,57.29882 0,42.42819 -0.294318,56.55995 -1.199218,57.46485 -1.47082,1.47082 -33.509982,1.67019 -35.800782,0.22265 -1.29845,-0.82048 -1.535807,-8.40771 -1.773437,-56.46093 -0.26996,-54.58961 -0.24088,-55.54623 1.75,-57.53711 1.85928,-1.85928 3.294584,-2.02344 17.589844,-2.02344 z"
     style="fill:#0096d2"
     id="path2599" />
</svg>
