<?xml version="1.0" encoding="UTF-8" standalone="no"?>
<svg
   xmlns:dc="http://purl.org/dc/elements/1.1/"
   xmlns:cc="http://creativecommons.org/ns#"
   xmlns:rdf="http://www.w3.org/1999/02/22-rdf-syntax-ns#"
   xmlns:svg="http://www.w3.org/2000/svg"
   xmlns="http://www.w3.org/2000/svg"
   viewBox="0 0 222.48877 221.96065"
   height="221.96065"
   width="222.48877"
   id="svg10"
   version="1.1">
  <metadata
     id="metadata16">
    <rdf:RDF>
      <cc:Work
         rdf:about="">
        <dc:format>image/svg+xml</dc:format>
        <dc:type
           rdf:resource="http://purl.org/dc/dcmitype/StillImage" />
        <dc:title></dc:title>
      </cc:Work>
    </rdf:RDF>
  </metadata>
  <defs
     id="defs14" />
  <path
     id="path22"
     d="M 26.203125 0.00390625 C 16.17547 -0.15234355 5.9987444 5.1911688 1.5527344 15.748047 C -0.45741563 20.521067 -0.52983065 30.469476 1.4121094 35.117188 C 3.5437594 40.218947 9.9006435 46.945843 14.621094 49.095703 C 19.260464 51.208633 28.485683 51.531496 34.314453 49.785156 C 39.976173 48.088866 46.442543 41.966196 49.101562 35.785156 C 51.884703 29.315556 51.566281 19.685637 48.363281 13.460938 C 43.783955 4.5614927 35.051056 0.14177372 26.203125 0.00390625 z M 169.62109 70.654297 C 153.34448 70.654297 140.65236 75.650554 130.41797 86.083984 C 127.24715 89.316464 124.10065 91.960938 123.42578 91.960938 C 122.57192 91.960938 122.11123 89.299918 121.91016 83.210938 L 121.62109 74.460938 L 100.62109 74.460938 L 79.621094 74.460938 L 79.363281 146.96094 C 79.221001 186.83594 79.317551 220.02344 79.580078 220.71094 C 79.941508 221.65746 85.285974 221.96094 101.58984 221.96094 L 123.12109 221.96094 L 123.12891 187.21094 C 123.14191 134.56722 124.48913 124.8806 132.93359 116.65234 C 138.17376 111.54633 143.22311 109.71914 152.27734 109.65234 C 162.63623 109.57584 168.31759 112.38831 172.77734 119.80664 C 177.65027 127.91224 178.12109 133.20422 178.12109 179.79297 L 178.12109 221.96094 L 200.0625 221.96094 C 212.13004 221.96094 222.17622 221.62344 222.38672 221.21094 C 222.59722 220.79844 222.47382 196.83594 222.11328 167.96094 C 221.49882 118.74522 221.3257 114.97866 219.3418 107.75391 C 212.3752 82.383765 196.65586 70.654297 169.62109 70.654297 z M 47.121094 73.921875 L 25.371094 74.191406 L 3.6210938 74.460938 L 3.3652344 148.21094 L 3.1074219 221.96094 L 25.115234 221.96094 L 47.121094 221.96094 L 47.121094 147.94141 L 47.121094 73.921875 z "
     style="fill:#ffffff" />
</svg>
